<?xml version="1.0" encoding="iso-8859-1"?>
<!-- Generator: Adobe Illustrator 19.0.0, SVG Export Plug-In . SVG Version: 6.00 Build 0)  -->
<svg version="1.1" id="Layer_1" xmlns="http://www.w3.org/2000/svg" xmlns:xlink="http://www.w3.org/1999/xlink" x="0px" y="0px"
	 viewBox="0 0 512.001 512.001" style="enable-background:new 0 0 512.001 512.001;" xml:space="preserve">
<g>
	<g>
		<path d="M257.858,96.467c-50.263,0-91.155,40.892-91.155,91.155s40.891,91.155,91.155,91.155
			c50.263,0,91.155-40.892,91.155-91.155S308.121,96.467,257.858,96.467z M257.858,245.902c-32.136,0-58.28-26.145-58.28-58.28
			c-0.001-32.136,26.143-58.28,58.28-58.28c32.136,0,58.28,26.145,58.28,58.28S289.994,245.902,257.858,245.902z"/>
	</g>
</g>
<g>
	<g>
		<path d="M408.679,284.879l11.424-3.03l-14.374-54.199l39.751-39.548l-39.548-39.75l14.651-54.125l-54.125-14.651l-14.374-54.199
			l-54.198,14.374L258.338,0l-39.75,39.548l-54.125-14.651l-14.651,54.125l-54.2,14.374l14.374,54.199l-39.75,39.548l39.548,39.751
			l-14.651,54.125l8.788,2.379L39.473,444.059l96.605-5.144l76.863,73.086l43.059-107.346l43.059,107.346l76.862-73.086
			l96.606,5.144L408.679,284.879z M200.473,454.78l-52.002-49.447l-59.309,3.158l46.709-116.445l13.386,3.623l14.374,54.198
			l54.199-14.373l21.731,21.842L200.473,454.78z M227.748,298.852l-40.769,10.812l-10.813-40.769l-40.713-11.021l11.021-40.713
			l-29.748-29.901l29.9-29.748l-10.812-40.769l40.77-10.812l11.021-40.713l40.713,11.021l29.901-29.748l29.748,29.901l40.77-10.812
			l10.812,40.769l40.713,11.021l-11.021,40.713l29.748,29.901l-29.9,29.748l10.813,40.769l-40.77,10.812l-11.021,40.713
			l-40.713-11.021l-29.902,29.747L227.748,298.852z M363.531,405.333l-52.002,49.447l-38.249-95.357l23.848-23.726l54.125,14.651
			l14.651-54.125l10.759-2.854l46.178,115.12L363.531,405.333z"/>
	</g>
</g>
<g>
</g>
<g>
</g>
<g>
</g>
<g>
</g>
<g>
</g>
<g>
</g>
<g>
</g>
<g>
</g>
<g>
</g>
<g>
</g>
<g>
</g>
<g>
</g>
<g>
</g>
<g>
</g>
<g>
</g>
</svg>
