<svg xmlns="http://www.w3.org/2000/svg" viewBox="0 0 512.001 512.001" fill="#b0d028"><path d="M511.351 16.323C510.941 7.72 504.058.838 495.455.427c-2.597-.121-64.445-2.909-140.418 7.521-103.654 14.226-179.909 45.138-226.645 91.875-75.439 75.438-76.902 193.916-11.321 271.253L5.118 483.476c-6.525 6.524-6.525 17.105 0 23.63a16.657 16.657 0 0 0 11.814 4.895c4.275 0 8.553-1.632 11.814-4.895l111.954-112.4c77.358 65.598 195.835 64.099 271.253-11.322 46.738-46.736 77.648-122.991 91.875-226.645 10.429-75.974 7.645-137.821 7.523-140.416zM388.325 359.754c-62.198 62.198-159.533 63.997-223.904 11.232l29.967-30.636H305.62c9.228 0 16.709-6.813 16.709-16.041 0-9.228-7.481-17.266-16.709-17.266h-77.813l72.918-72.473h111.23c9.228 0 16.709-7.37 16.709-16.598 0-9.228-7.481-16.709-16.709-16.709h-77.812l77.812-77.812c6.525-6.524 6.525-17.105 0-23.63-6.524-6.524-17.105-6.524-23.63 0l-77.589 77.812v-77.81c0-9.228-7.704-16.709-16.932-16.709s-16.152 7.481-16.152 16.709v111.23l-73.587 72.918v-77.813c0-9.228-7.37-16.709-16.598-16.709-9.228 0-16.709 7.481-16.709 16.709V317.39l-29.967 29.967c-52.795-64.407-50.933-161.741 11.232-223.904 72.39-72.389 223.505-90.569 326.264-89.963.36 55.02-4.986 241.289-89.962 326.264z"/></svg>