<svg xmlns="http://www.w3.org/2000/svg" viewBox="0 0 512.001 512.001" fill="#b0d028"><path d="M257.858 96.467c-50.263 0-91.155 40.892-91.155 91.155s40.891 91.155 91.155 91.155c50.263 0 91.155-40.892 91.155-91.155s-40.892-91.155-91.155-91.155zm0 149.435c-32.136 0-58.28-26.145-58.28-58.28-.001-32.136 26.143-58.28 58.28-58.28 32.136 0 58.28 26.145 58.28 58.28s-26.144 58.28-58.28 58.28z"/><path d="M408.679 284.879l11.424-3.03-14.374-54.199 39.751-39.548-39.548-39.75 14.651-54.125-54.125-14.651-14.374-54.199-54.198 14.374L258.338 0l-39.75 39.548-54.125-14.651-14.651 54.125-54.2 14.374 14.374 54.199-39.75 39.548 39.548 39.751-14.651 54.125 8.788 2.379-64.448 160.661 96.605-5.144 76.863 73.086L256 404.655l43.059 107.346 76.862-73.086 96.606 5.144-63.848-159.18zM200.473 454.78l-52.002-49.447-59.309 3.158 46.709-116.445 13.386 3.623 14.374 54.198 54.199-14.373 21.731 21.842-39.088 97.444zm27.275-155.928l-40.769 10.812-10.813-40.769-40.713-11.021 11.021-40.713-29.748-29.901 29.9-29.748-10.812-40.769 40.77-10.812 11.021-40.713 40.713 11.021 29.901-29.748 29.748 29.901 40.77-10.812 10.812 40.769 40.713 11.021-11.021 40.713 29.748 29.901-29.9 29.748 10.813 40.769-40.77 10.812-11.021 40.713-40.713-11.021-29.902 29.747-29.748-29.9zm135.783 106.481l-52.002 49.447-38.249-95.357 23.848-23.726 54.125 14.651 14.651-54.125 10.759-2.854 46.178 115.12-59.31-3.156z"/></svg>